<svg t="1716543106675" class="icon" viewBox="0 0 2467 1024" version="1.1" xmlns="http://www.w3.org/2000/svg" p-id="3917" width="256" height="256"><path d="M2315.504 628.296v108.544h-85.92v167.208h-157.152V756.992h89.632v-19.8h-89.632v-0.352h-349.336v-34.288h62.832v-19.8h-62.832V576.408l138.552-200.52h72.76v-14.832h-158.384V321.44h123.232l139.248-201.512h191.072v8.504h71.064v29.688h-71.064v188.072h100.776v24.76h-100.776v143.512h36.424v44.552h-36.424v38.84h85.92v0.76h113.832v29.68h-113.824z m-243.072-59.384h-34.096v-29.68h34.096v-74.256h-43.984v-19.8h43.984V289.4h-6.784l-141.816 210.224h65.008v29.688h-85.04l-41.664 61.768v6.776h210.288v-28.944z m243.072-158.376h39.592v24.744h-39.592v-24.744zM1465.312 510.864c0 27.704-0.824 53.592-2.432 77.856h-63.008v39.576h59.528c-5.096 46.2-13.464 85.504-24.832 118.784h69.232v39.6h-85.496c-48.12 98.08-130.752 128.696-236.76 128.696-72.352 0-134.192-14.256-181.688-54.456h231.736v-24.744h-256.336c-35.4-42.128-60.104-104.2-71.88-193.024h-122.16v-29.688h222.712V588.72H898a1104.296 1104.296 0 0 1-1.736-34.648h-45.752v-39.608h45.032c0-1.208-0.024-2.368-0.024-3.6 0-48.696 2.6-91.824 7.584-130.032h81.032v-29.688h-76.504c33.464-190.096 134.112-242.52 273.912-242.52 133.52 0 229.984 47.84 267.04 217.768h-73.464v19.8H1612.688v29.696h-155.504c5.344 39.4 8.128 84.152 8.128 134.976z m-283.76-262.128c-76.208 0-112.56 39.832-120.44 191.496h-27.48v29.696h26.344c-0.352 13.288-0.536 27.28-0.536 42.072 0 212.408 35.048 262.144 122.112 262.144 48.752 0 81.184-15.624 100.304-66.64h-25.504v-39.6h36.296c6.656-33.808 10.152-77.52 10.856-133.632h-47.16v-19.8h47.288l0.008-2.464c0-211.304-35.048-263.272-122.088-263.272z m-529.016 8.376h54.44v39.592h-54.44v-39.592z m-92.368 646.944H403.016V766.88h51.552v-29.688h-51.552v-0.352H53.664v-59.032H14.08v-29.712h272.208V623.36H53.664v-46.952l73.576-106.48H78.416v-39.592h138.576v-24.744h-45.296l150.488-217.768h117.528v-29.704H342.696l26.4-38.184h191.072V366H494.16v29.696h94.024v24.744h-28.016v177.424H646.08v70.04h-33.136V697.6h33.136v39.248H560.168v167.208zM479.312 514.464h-76.296V289.4h-6.792l-54.992 81.544h29.192v19.792h-42.552L192.728 591.088v6.776h210.288v-58.624h76.296v-24.776z m-331.6-361.296h39.592v29.688h-39.592v-29.688zM1607.76 539.232h-39.592v-24.768h39.592v24.768z" fill="#A9A7F9" p-id="3918"></path><path d="M2339.096 628.296v108.544h-85.92v167.208h-157.152V756.992h89.632v-19.8h-89.632v-0.352h-349.336v-34.288h62.832v-19.8h-62.832V576.408l138.544-200.52h72.76v-14.832h-158.384V321.44h123.24l139.24-201.512h191.08v8.504h71.064v29.688h-71.064v188.072h100.776v24.76h-100.776v143.512h36.424v44.552h-36.424v38.84h85.92v0.76h113.832v29.68h-113.824z m-243.072-59.384h-34.096v-29.68h34.096v-74.256h-43.984v-19.8h43.984V289.4h-6.784l-141.816 210.224h65.008v29.688h-85.048l-41.656 61.768v6.776h210.288v-28.944z m243.072-158.376h39.592v24.744h-39.592v-24.744zM1488.904 510.864c0 27.704-0.832 53.592-2.432 77.856h-63.008v39.576h59.528c-5.096 46.2-13.464 85.504-24.832 118.784h69.232v39.6h-85.496c-48.12 98.08-130.76 128.696-236.768 128.696-72.352 0-134.192-14.256-181.688-54.456h231.736v-24.744h-256.336c-35.4-42.128-60.104-104.2-71.88-193.024H804.8v-29.688h222.712V588.72h-105.936a1104.296 1104.296 0 0 1-1.736-34.648h-45.752v-39.608h45.032c0-1.208-0.024-2.368-0.024-3.6 0-48.696 2.6-91.824 7.584-130.032h81.032v-29.688h-76.504c33.464-190.096 134.112-242.52 273.912-242.52 133.512 0 229.976 47.84 267.048 217.768h-73.464v19.8h237.56v29.696h-155.504c5.368 39.4 8.144 84.152 8.144 134.976z m-283.76-262.128c-76.208 0-112.56 39.832-120.44 191.496h-27.48v29.696h26.344c-0.344 13.288-0.536 27.28-0.536 42.072 0 212.408 35.048 262.144 122.112 262.144 48.76 0 81.184-15.624 100.296-66.64h-25.504v-39.6h36.288c6.656-33.808 10.16-77.52 10.864-133.632h-47.16v-19.8h47.288l0.008-2.464c0.008-211.304-35.04-263.272-122.08-263.272z m-529.016 8.376h54.448v39.592h-54.448v-39.592zM583.76 904.056H426.608V766.88h51.552v-29.688h-51.552v-0.352H77.256v-59.032H37.664v-29.712h272.208V623.36H77.256v-46.952l73.576-106.48H102v-39.592h138.576v-24.744H195.28l150.488-217.768h117.528v-29.704H366.288l26.4-38.184H583.76V366h-66.008v29.696h94.024v24.744H583.76v177.424h85.912v70.04h-33.136V697.6h33.136v39.248H583.76v167.208zM502.896 514.464h-76.296V289.4h-6.792l-54.992 81.544h29.184v19.792h-42.552L216.32 591.088v6.776h210.288v-58.624h76.296v-24.776zM171.304 153.168h39.592v29.688h-39.592v-29.688z m1460.04 386.064h-39.592v-24.768h39.592v24.768z" fill="#3B579F" p-id="3919"></path></svg>