<svg t="1715619081782" class="icon" viewBox="0 0 1024 1024" version="1.1" xmlns="http://www.w3.org/2000/svg" p-id="2099" width="256" height="256"><path d="M82.672 315.36C71.472 311.648 64 300.528 64 289.392s7.472-22.256 18.672-29.68l369.6-181.792C489.6 59.36 534.4 59.36 568 77.92l369.6 181.792c14.928 7.424 22.4 18.56 22.4 29.68 0 11.136-7.472 22.256-18.672 29.68l-369.6 181.792c-37.328 18.56-82.128 18.56-115.728 0L82.672 315.36z m858.656 163.248c11.2 3.712 18.672 14.848 18.672 29.68 0 11.136-7.472 22.256-18.672 29.68l-369.6 185.504c-37.328 18.56-82.128 18.56-115.728 0L86.4 537.968c-14.928-7.424-22.4-18.56-22.4-29.68 0-11.136 7.472-22.256 18.672-29.68l93.328-40.8 276.272 140.96c37.328 18.56 82.128 18.56 115.728 0l280-140.96 93.328 40.8z m0 222.608c11.2 3.712 18.672 14.848 18.672 29.68 0 11.136-7.472 22.256-18.672 29.68l-369.6 185.504c-37.328 18.56-82.128 18.56-115.728 0L86.4 760.576c-14.928-7.424-22.4-18.56-22.4-29.68 0-11.12 7.472-22.256 18.672-29.68l93.328-40.8 276.272 140.976c37.328 18.56 82.128 18.56 115.728 0L848 660.4l93.328 40.816z" fill="#1296db" p-id="2100"></path></svg>