<svg t="1715663812041" class="icon" viewBox="0 0 1024 1024" version="1.1" xmlns="http://www.w3.org/2000/svg" p-id="2461" width="256" height="256"><path d="M512 11.636364a498.804364 498.804364 0 0 1 353.815273 146.548363A498.804364 498.804364 0 0 1 1012.363636 512a498.804364 498.804364 0 0 1-146.548363 353.815273A498.804364 498.804364 0 0 1 512 1012.363636a498.804364 498.804364 0 0 1-353.815273-146.548363A498.804364 498.804364 0 0 1 11.636364 512 498.804364 498.804364 0 0 1 158.184727 158.184727 498.804364 498.804364 0 0 1 512 11.636364z" fill="#FCF2DB" p-id="2462"></path><path d="M515.909818 809.937455c48.221091-2.327273 95.185455-71.330909 139.310546-57.972364 99.188364 30.091636 177.943273 54.993455 231.237818 74.053818A487.330909 487.330909 0 0 1 512 1000.727273c-148.200727 0-281.041455-65.978182-370.688-170.216728 57.157818-22.737455 124.602182-46.568727 252.229818-79.569454 26.763636-6.842182 89.716364 60.578909 122.368 58.996364z" fill="#FAF8F2" p-id="2463"></path><path d="M565.922909 959.581091l6.050909 37.469091a498.501818 498.501818 0 0 1-99.84 2.094545l4.933818-37.911272 88.855273-1.652364z" fill="#312621" p-id="2464"></path><path d="M400.523636 983.04l1.024 5.12A488.727273 488.727273 0 0 1 141.730909 830.929455c88.669091-36.538182 149.876364-57.460364 183.505455-62.650182 21.294545-3.328 46.429091 68.282182 75.310545 214.760727z m307.339637-219.810909c27.857455 0 88.203636 19.921455 181.061818 59.834182a489.262545 489.262545 0 0 1-252.834909 161.792c29.952-147.781818 53.853091-221.626182 71.773091-221.626182z" fill="#F5A800" p-id="2465"></path><path d="M651.170909 709.515636l-4.701091-120.250181H397.032727l-4.677818 120.040727c-3.490909 88.064 51.618909 162.280727 122.577455 166.260363 1.163636 0.069818 2.327273 0.139636 3.467636 0.139637 75.008 3.328 136.424727-73.192727 132.747636-166.167273" fill="#F8C5AE" p-id="2466"></path><path d="M373.317818 551.191273c-30.394182 13.218909-55.947636-28.648727-64.698182-46.475637-15.499636-31.976727-3.653818-68.654545 11.938909-76.450909 14.196364-7.074909 29.021091 2.094545 29.021091 2.094546s25.250909 23.738182 31.115637 74.007272c3.537455 29.928727-7.377455 46.824727-7.377455 46.824728m301.172364 0c30.324364 13.218909 55.947636-28.648727 64.698182-46.475637 15.522909-31.976727 3.677091-68.654545-11.915637-76.450909-14.219636-7.074909-29.021091 2.094545-29.021091 2.094546s-25.274182 23.738182-31.115636 74.007272c-3.537455 29.928727 7.354182 46.824727 7.354182 46.824728" fill="#FAC5AC" p-id="2467"></path><path d="M517.189818 213.876364c-129.28 0-195.258182 112.384-172.683636 243.409454 11.124364 64.395636 10.705455 63.162182 25.413818 127.255273 6.656 29.184 69.538909 123.950545 157.230545 123.950545 82.013091 0 141.428364-92.392727 148.154182-122.274909 14.056727-62.813091 14.778182-64.232727 23.296-128.930909 17.338182-131.886545-43.380364-243.432727-172.683636-243.432727h-8.727273z" fill="#FFD2BD" p-id="2468"></path><path d="M526.661818 711.540364c-44.334545 0-80.290909-23.901091-102.586182-43.892364a2.746182 2.746182 0 0 1-0.232727-3.909818 2.746182 2.746182 0 0 1 3.909818-0.232727c21.597091 19.432727 56.226909 42.542545 98.839273 42.542545 41.867636 0 75.729455-24.762182 96.721455-45.474909a2.746182 2.746182 0 0 1 3.909818 0 2.746182 2.746182 0 0 1 0 3.886545c-21.736727 21.527273-56.832 47.080727-100.561455 47.080728" fill="#D28B6A" p-id="2469"></path><path d="M613.701818 475.252364c0 12.055273-7.424 21.876364-16.523636 21.876363-9.076364 0-16.523636-9.821091-16.523637-21.876363s7.354182-21.876364 16.523637-21.876364c9.169455 0 16.523636 9.821091 16.523636 21.876364m-170.635636 21.946181c-9.099636 0-16.523636-9.821091-16.523637-21.876363s7.424-21.876364 16.523637-21.876364c9.169455 0 16.523636 9.821091 16.523636 21.876364s-7.354182 21.876364-16.523636 21.876363z" fill="#312621" p-id="2470"></path><path d="M541.602909 550.632727H512a5.538909 5.538909 0 0 1-5.562182-5.492363c0-3.025455 2.466909-5.492364 5.562182-5.492364h23.901091l-2.164364-83.735273c0-1.093818 0.279273-2.094545 0.791273-2.955636l16.896-28.020364a5.515636 5.515636 0 0 1 9.448727 5.701818l-16.034909 26.507637 2.327273 87.761454a5.352727 5.352727 0 0 1-1.605818 3.979637 5.585455 5.585455 0 0 1-3.956364 1.745454" fill="#E7BBA7" p-id="2471"></path><path d="M539.927273 632.040727h-30.021818a5.538909 5.538909 0 0 1-5.562182-5.469091c0-3.025455 2.466909-5.492364 5.562182-5.492363h30.021818c3.025455 0 5.585455 2.443636 5.585454 5.492363a5.585455 5.585455 0 0 1-5.585454 5.469091" fill="#EDBEA8" p-id="2472"></path><path d="M549.981091 594.385455h-52.922182c-9.169455 0-17.92-2.839273-25.274182-8.238546a5.538909 5.538909 0 0 1 6.516364-8.96c5.469091 3.956364 11.962182 6.050909 18.757818 6.050909h52.922182c7.633455 0 15.010909-2.234182 21.410909-6.330182a5.562182 5.562182 0 0 1 7.68 1.582546 5.562182 5.562182 0 0 1-1.605818 7.656727 49.92 49.92 0 0 1-27.485091 8.215273" fill="#D96C4C" p-id="2473"></path><path d="M481.815273 436.386909h-0.418909l-71.051637-7.842909-14.848 6.981818c-2.909091 1.373091-6.074182-0.814545-7.005091-4.794182-0.930909-3.956364 0.558545-8.331636 3.467637-9.634909l15.941818-7.447272a4.468364 4.468364 0 0 1 2.234182-0.395637l72.192 7.936c3.025455 0.395636 5.352727 3.979636 5.050182 8.145455-0.279273 4.072727-2.746182 7.051636-5.562182 7.051636m78.615272 0c-2.885818 0-5.259636-2.978909-5.46909-6.935273-0.232727-4.189091 2.001455-7.866182 5.050181-8.145454l72.192-7.959273a3.537455 3.537455 0 0 1 2.234182 0.395636l15.941818 7.447273c2.885818 1.396364 4.421818 5.678545 3.490909 9.634909-1.024 3.979636-4.142545 6.167273-7.028363 4.770909l-14.871273-6.935272-71.028364 7.842909a1.047273 1.047273 0 0 0-0.512-0.116364" fill="#312621" p-id="2474"></path><path d="M397.730909 312.599273s-34.210909 5.213091-34.210909 59.066182c0 10.612364-11.054545 13.637818-11.915636 26.414545-2.094545 29.021091-4.910545 66.327273-4.910546 66.327273s-31.837091-100.468364-33.512727-110.359273c-45.102545-18.618182-31.115636-29.533091-31.115636-29.533091s6.213818-8.285091 12.427636-27.997091c-28.020364 4.677818-12.427636-12.427636-12.427636-12.427636s48.453818-68.142545 56.017454-80.849455c0 0 46.219636-66.839273 94.952727-60.648727-9.309091-11.403636-6.213818-27.997091 9.309091-16.593455 29.021091 7.284364 66.699636-26.717091 117.806546 12.567273 111.522909-3.188364 162.280727 111.313455 159.255272 127.348364 6.772364 5.818182 10.379636 11.403636 5.189819 29.021091 4.910545 19.409455-9.751273 90.949818-11.403637 97.163636l-14.801454 70.749091c-0.512 2.164364-4.980364-31.488-8.005818-62.161455-2.094545-20.712727-14.522182-19.339636-14.522182-28.020363 0-70.446545-54.993455-61.137455-54.993455-61.137455l-98.629818 12.404364c0 0.093091-101.189818-18.315636-124.509091-11.333818" fill="#312621" p-id="2475"></path><path d="M522.24 324.026182s-19.2-95.813818-98.606545-84.968727c-51.386182 6.981818-82.501818 83.944727-141.637819 85.457454-13.986909-6.702545 0.512 29.533091 31.115637 29.533091 23.901091-2.885818 50.269091-27.229091 79.406545-38.842182 23.389091-9.378909 63.813818-1.582545 129.722182 8.820364" fill="#4C3E3E" p-id="2476"></path><path d="M523.264 324.026182s4.701091-58.554182-15.592727-79.778909C477.719273 212.829091 441.250909 197.608727 395.636364 227.653818c-45.614545 30.021818-101.236364 68.933818-101.236364 68.933818s80.872727-66.932364 102.237091-82.385454c64.325818-46.615273 137.309091-34.699636 142.149818 41.448727 3.165091 48.64-15.522909 68.375273-15.522909 68.375273m-206.964364 40.122182s18.688-3.095273 56.017455-31.837091c-8.610909 19.432727-52.130909 46.638545-52.130909 46.638545l-3.886546-14.801454z" fill="#4C3E3E" p-id="2477"></path><path d="M527.592727 321.698909s61.719273-24.32 52.410182-96.861091c15.522909 14.498909 12.427636 41.425455 12.427636 41.425455s16.593455-83.944727-29.02109-125.393455c53.992727 24.832 64.302545 114.990545 34.210909 160.628364 26.996364-17.617455 50.827636-15.522909 70.516363-6.213818 19.712 9.309091 51.898182-30.021818 51.898182-30.021819s-14.498909 35.211636-39.400727 42.519273c33.210182-2.094545 44.613818-13.498182 44.613818-13.498182s4.189091 41.192727-5.981091 71.447273c-11.333818 16.058182-45.917091-20.712727-45.917091-20.712727s-11.403636-29.509818-28.020363-30.533818c-12.404364-3.165091-117.736727 7.214545-117.736728 7.214545" fill="#4C3E3E" p-id="2478"></path><path d="M675.211636 351.953455s18.920727 34.210909 39.214546 34.443636c1.303273-8.029091 1.792-9.611636 1.792-9.611636s-23.319273-3.607273-41.006546-24.832" fill="#4C3E3E" p-id="2479"></path><path d="M443.415273 881.617455l80.128-81.57091 80.128 83.013819-36.305455 80.128-90.298182-1.000728z" fill="#312621" p-id="2480"></path><path d="M325.888 766.254545a4.980364 4.980364 0 0 1 6.586182 0.861091l0.418909 0.581819 84.177454 129.652363 100.701091-97.745454a5.050182 5.050182 0 0 1 6.656-0.349091l0.558546 0.488727c1.815273 1.861818 1.885091 4.701091 0.372363 6.725818l-0.512 0.581818-105.029818 102.004364a5.050182 5.050182 0 0 1-7.377454-0.302545l-0.418909-0.581819-87.575273-134.842181a5.026909 5.026909 0 0 1 1.442909-7.07491z" fill="#CFD9F9" p-id="2481"></path><path d="M387.258182 709.818182l-56.459637 58.973091L418.909091 905.425455l104.657454-104.890182z" fill="#FBFCFF" p-id="2482"></path><path d="M705.326545 769.349818a5.026909 5.026909 0 0 1 6.935273-1.861818 5.12 5.12 0 0 1 2.164364 6.353455l-0.302546 0.651636-77.381818 134.842182a5.050182 5.050182 0 0 1-7.354182 1.582545l-0.581818-0.512-105.099636-102.004363a5.12 5.12 0 0 1 6.493091-7.866182l0.558545 0.512 100.421818 97.466182 74.146909-129.163637z" fill="#CFD9F9" p-id="2483"></path><path d="M657.687273 709.818182l56.436363 58.973091-88.064 136.634182-104.680727-104.890182z" fill="#FBFCFF" p-id="2484"></path><path d="M569.390545 960.302545c1.442909 0 2.536727 1.163636 2.536728 2.513455a2.490182 2.490182 0 0 1-2.024728 2.466909l-0.512 0.069818h-95.301818a2.513455 2.513455 0 0 1-2.513454-2.536727c0-1.210182 0.861091-2.234182 2.024727-2.443636l0.488727-0.069819h95.301818z" fill="#614B41" p-id="2485"></path></svg>