<svg t="1715663899005" class="icon" viewBox="0 0 1024 1024" version="1.1" xmlns="http://www.w3.org/2000/svg" p-id="2917" width="256" height="256"><path d="M70.5 511.77c0 243.76 197.74 441.501 441.499 441.501 243.76 0 441.501-197.74 441.501-441.501S755.759 70.27 511.999 70.27C268.24 70.27 70.5 268.01 70.5 511.77z" fill="#FFE6EA" p-id="2918"></path><path d="M834.124 813.394c-22.325-17.771-64.695-43.743-106.612-63.786-67.89-33.263-143.978-47.841-143.978-47.841v2.277c-5.471 5.922-32.35 32.35-68.802 32.35-35.995 0-63.33-24.602-69.253-30.986l-0.457-3.189s-72.899 10.025-141.244 43.287c-46.471 22.782-93.404 52.399-113.448 69.71 83.375 88.846 199.56 138.968 321.212 138.512 127.576-0.458 242.392-54.222 322.582-140.334z m0 0" fill="#FFABC9" p-id="2919"></path><path d="M442.08 544.678v164.797c19.399 23.685 44.944 35.859 70.569 35.859 25.138 0 50.277-11.759 69.352-35.859V544.678c-0.079-89.073-139.921-89.073-139.921 0z m0 0" fill="#FFD5C0" p-id="2920"></path><path d="M442 552.138v110.337c26.463 19.934 52.034 31.105 70 31.105s43.457-11.09 70-31.105V552.138c0-89.073-140-89.073-140 0z m0 0" fill="#F7C5AA" p-id="2921"></path><path d="M682.496 493.098c0 94.915-105.596 182.235-170.479 182.235-64.884 0-170.478-87.32-170.478-182.235-4.948-54.869 26.416-107.486 81.197-136.215 54.784-28.733 123.742-28.733 178.523 0 54.784 28.729 86.149 81.346 81.202 136.215h0.035z m0 0" fill="#FFD5C0" p-id="2922"></path><path d="M434.697 238.98c0 46.2 37.452 83.652 83.651 83.652 46.2 0 83.652-37.452 83.652-83.652 0-46.194-37.452-83.647-83.652-83.647-46.199 0-83.651 37.453-83.651 83.647z m0 0" fill="#3F3F3F" p-id="2923"></path><path d="M697.157 452.851c-3.007-0.998-6.256-0.916-9.425 0-1.67 0.501-3.422 1.25-5.087 2.171-1.417 0.831-2.921 1.833-4.256 3.002a42.464 42.464 0 0 0-4 3.752c-5.421 5.755-10.179 13.844-13.181 23.268-2.333 7.006-3.417 13.931-3.417 20.268-0.086 11.258 3.169 20.516 9.258 25.021 1.251 0.916 2.583 1.665 4.085 2.166 12.762 4.171 28.857-10.26 36.112-32.274 7.004-21.938 2.586-43.117-10.089-47.374z m-332.269 51.712c-0.166-6.089-1.25-12.68-3.416-19.432a71.021 71.021 0 0 0-4.591-10.842c-3.336-6.424-7.502-11.763-12.007-15.596a26.295 26.295 0 0 0-2.42-1.918 26.329 26.329 0 0 0-6.924-3.67c-3.503-1.169-6.92-1.336-10.174-0.253-12.675 4.256-17.094 25.435-9.921 47.455 7.173 22.018 23.35 36.445 36.112 32.279 1.665-0.588 3.255-1.423 4.672-2.587 5.835-4.753 9.004-14.179 8.669-25.436z m0 0" fill="#FFD5C0" p-id="2924"></path><path d="M496.051 242.531a60.194 60.194 0 0 0-9.595-0.765s-120.492-5.734-150.207 149.011c-14.216 11.937-26.378 72.879 8.051 124.557 4.709-43.654 19.097-75.268 43.931-87.302 44.018-21.398 62.174-1.531 113.127-45.185 29.804-25.503 45.563-81.002 38.967-109.658-11.82-35.626-47.189-30.089-44.274-30.658z m0 0" fill="#F7C5AA" p-id="2925"></path><path d="M506.969 248.128S456.6 401.243 676.584 465.334c52.747-140.142-43.539-231.611-169.615-217.206z m0 0" fill="#F7C5AA" p-id="2926"></path><path d="M517.641 229.561s-50.369 166.203 169.615 235.772c52.746-152.12-43.54-251.408-169.615-235.772z m0 0" fill="#3F3F3F" p-id="2927"></path><path d="M486.239 226.126a60.194 60.194 0 0 0-9.595-0.765s-120.492-5.734-150.207 149.011c-14.216 11.937-26.378 72.879 8.051 124.557 4.709-43.654 19.097-75.268 43.931-87.302 44.018-21.398 62.174-1.531 113.127-45.185 29.804-25.503 45.563-81.002 38.967-109.658-11.82-35.627-47.19-30.09-44.274-30.658z m0 0" fill="#3F3F3F" p-id="2928"></path><path d="M582 695.333s-30.151 40-70.075 50l30.075 50 70-90-30-10z" fill="#FDFEFF" p-id="2929"></path><path d="M442 695.333s30.151 40 70.075 50l-30.075 50-70-90 30-10z" fill="#FDFEFF" p-id="2930"></path></svg>